<mxfile host="app.diagrams.net" modified="2021-04-08T09:31:27.112Z" agent="5.0 (Windows NT 10.0; Win64; x64) AppleWebKit/537.36 (KHTML, like Gecko) Chrome/88.0.4324.182 Safari/537.36" etag="zbBWNyvueKnDh9f-EtVO" version="14.5.8" type="github">
  <diagram id="y-cElAqZKnmPTafvXozH" name="Page-1">
    <mxGraphModel dx="2889" dy="1132" grid="1" gridSize="10" guides="1" tooltips="1" connect="1" arrows="1" fold="1" page="1" pageScale="1" pageWidth="827" pageHeight="1169" math="0" shadow="0">
      <root>
        <mxCell id="0" />
        <mxCell id="1" parent="0" />
        <mxCell id="ovo-RbeHINt_-BDwbEt4-23" value="" style="rounded=1;whiteSpace=wrap;html=1;dashed=1;" vertex="1" parent="1">
          <mxGeometry x="990" y="420" width="390" height="310" as="geometry" />
        </mxCell>
        <mxCell id="ovo-RbeHINt_-BDwbEt4-8" value="" style="rounded=1;whiteSpace=wrap;html=1;dashed=1;" vertex="1" parent="1">
          <mxGeometry x="414" y="230" width="476" height="200" as="geometry" />
        </mxCell>
        <mxCell id="ovo-RbeHINt_-BDwbEt4-29" value="" style="edgeStyle=orthogonalEdgeStyle;curved=1;rounded=0;orthogonalLoop=1;jettySize=auto;html=1;" edge="1" parent="1" source="ovo-RbeHINt_-BDwbEt4-1" target="ovo-RbeHINt_-BDwbEt4-28">
          <mxGeometry relative="1" as="geometry" />
        </mxCell>
        <mxCell id="ovo-RbeHINt_-BDwbEt4-1" value="&lt;font style=&quot;font-size: 20px&quot;&gt;端内&lt;/font&gt;" style="rounded=1;whiteSpace=wrap;html=1;fontFamily=Comic Sans MS;glass=0;strokeWidth=2;perimeterSpacing=7;shadow=1;fillColor=#cdeb8b;strokeColor=#36393d;" vertex="1" parent="1">
          <mxGeometry x="440" y="340" width="260" height="60" as="geometry" />
        </mxCell>
        <mxCell id="ovo-RbeHINt_-BDwbEt4-2" value="&lt;font face=&quot;comic sans ms&quot;&gt;&lt;span style=&quot;font-size: 20px&quot;&gt;QB福利中心签到活动 拉取活动数据示意图&lt;br&gt;&lt;/span&gt;&lt;/font&gt;" style="text;html=1;strokeColor=none;fillColor=none;align=center;verticalAlign=middle;whiteSpace=wrap;rounded=0;" vertex="1" parent="1">
          <mxGeometry x="435" y="130" width="410" height="70" as="geometry" />
        </mxCell>
        <mxCell id="ovo-RbeHINt_-BDwbEt4-3" value="&lt;font face=&quot;comic sans ms&quot;&gt;&lt;span style=&quot;font-size: 20px&quot;&gt;入口&lt;br&gt;&lt;/span&gt;&lt;/font&gt;" style="text;html=1;strokeColor=none;fillColor=none;align=center;verticalAlign=middle;whiteSpace=wrap;rounded=0;" vertex="1" parent="1">
          <mxGeometry x="-70" y="255" width="240" height="70" as="geometry" />
        </mxCell>
        <mxCell id="ovo-RbeHINt_-BDwbEt4-25" style="edgeStyle=orthogonalEdgeStyle;curved=1;rounded=0;orthogonalLoop=1;jettySize=auto;html=1;exitX=0.5;exitY=1;exitDx=0;exitDy=0;entryX=0.5;entryY=0;entryDx=0;entryDy=0;" edge="1" parent="1" source="ovo-RbeHINt_-BDwbEt4-4" target="ovo-RbeHINt_-BDwbEt4-9">
          <mxGeometry relative="1" as="geometry" />
        </mxCell>
        <mxCell id="ovo-RbeHINt_-BDwbEt4-4" value="&lt;font style=&quot;font-size: 20px&quot;&gt;端外&lt;/font&gt;" style="rounded=1;whiteSpace=wrap;html=1;fontFamily=Comic Sans MS;glass=0;strokeWidth=2;perimeterSpacing=7;shadow=1;fillColor=#cdeb8b;strokeColor=#36393d;" vertex="1" parent="1">
          <mxGeometry x="745" y="340" width="120" height="60" as="geometry" />
        </mxCell>
        <mxCell id="ovo-RbeHINt_-BDwbEt4-5" value="&lt;font style=&quot;font-size: 20px&quot;&gt;闪屏&lt;/font&gt;" style="rounded=1;whiteSpace=wrap;html=1;fontFamily=Comic Sans MS;glass=0;strokeWidth=2;perimeterSpacing=7;shadow=1;fillColor=#cdeb8b;strokeColor=#36393d;" vertex="1" parent="1">
          <mxGeometry x="440" y="255" width="110" height="60" as="geometry" />
        </mxCell>
        <mxCell id="ovo-RbeHINt_-BDwbEt4-6" value="&lt;span style=&quot;font-size: 20px&quot;&gt;...&lt;/span&gt;" style="rounded=1;whiteSpace=wrap;html=1;fontFamily=Comic Sans MS;glass=0;strokeWidth=2;perimeterSpacing=7;shadow=1;fillColor=#cdeb8b;strokeColor=#36393d;" vertex="1" parent="1">
          <mxGeometry x="570" y="255" width="110" height="60" as="geometry" />
        </mxCell>
        <mxCell id="ovo-RbeHINt_-BDwbEt4-7" value="&lt;span style=&quot;font-size: 20px&quot;&gt;H5&lt;/span&gt;" style="rounded=1;whiteSpace=wrap;html=1;fontFamily=Comic Sans MS;glass=0;strokeWidth=2;perimeterSpacing=7;shadow=1;fillColor=#cdeb8b;strokeColor=#36393d;" vertex="1" parent="1">
          <mxGeometry x="745" y="255" width="110" height="60" as="geometry" />
        </mxCell>
        <mxCell id="ovo-RbeHINt_-BDwbEt4-9" value="&lt;span style=&quot;font-size: 20px&quot;&gt;展示默认页面1&lt;/span&gt;" style="rounded=1;whiteSpace=wrap;html=1;fontFamily=Comic Sans MS;glass=0;strokeWidth=2;perimeterSpacing=7;shadow=1;fillColor=#ffcc99;strokeColor=#36393d;" vertex="1" parent="1">
          <mxGeometry x="725" y="480" width="160" height="60" as="geometry" />
        </mxCell>
        <mxCell id="ovo-RbeHINt_-BDwbEt4-20" value="Y" style="edgeStyle=orthogonalEdgeStyle;curved=1;rounded=0;orthogonalLoop=1;jettySize=auto;html=1;" edge="1" parent="1" source="ovo-RbeHINt_-BDwbEt4-17" target="ovo-RbeHINt_-BDwbEt4-19">
          <mxGeometry relative="1" as="geometry" />
        </mxCell>
        <mxCell id="ovo-RbeHINt_-BDwbEt4-22" value="" style="edgeStyle=orthogonalEdgeStyle;curved=1;rounded=0;orthogonalLoop=1;jettySize=auto;html=1;" edge="1" parent="1" source="ovo-RbeHINt_-BDwbEt4-17" target="ovo-RbeHINt_-BDwbEt4-21">
          <mxGeometry relative="1" as="geometry" />
        </mxCell>
        <mxCell id="ovo-RbeHINt_-BDwbEt4-17" value="&lt;span style=&quot;font-size: 20px&quot;&gt;已安装QB？&lt;/span&gt;" style="rhombus;whiteSpace=wrap;html=1;rounded=1;shadow=1;fontFamily=Comic Sans MS;strokeColor=#36393d;strokeWidth=2;fillColor=#ffcc99;glass=0;" vertex="1" parent="1">
          <mxGeometry x="1000" y="470" width="150" height="80" as="geometry" />
        </mxCell>
        <mxCell id="ovo-RbeHINt_-BDwbEt4-19" value="&lt;span style=&quot;font-size: 20px&quot;&gt;打开QB跳转至活动页&lt;/span&gt;" style="whiteSpace=wrap;html=1;rounded=1;shadow=1;fontFamily=Comic Sans MS;strokeColor=#36393d;strokeWidth=2;fillColor=#ffcc99;glass=0;" vertex="1" parent="1">
          <mxGeometry x="1245" y="480" width="120" height="60" as="geometry" />
        </mxCell>
        <mxCell id="ovo-RbeHINt_-BDwbEt4-21" value="&lt;span style=&quot;font-size: 20px&quot;&gt;提示下载&lt;/span&gt;" style="whiteSpace=wrap;html=1;rounded=1;shadow=1;fontFamily=Comic Sans MS;strokeColor=#36393d;strokeWidth=2;fillColor=#ffcc99;glass=0;" vertex="1" parent="1">
          <mxGeometry x="1015" y="640" width="120" height="60" as="geometry" />
        </mxCell>
        <mxCell id="ovo-RbeHINt_-BDwbEt4-24" value="&lt;font face=&quot;comic sans ms&quot;&gt;&lt;span style=&quot;font-size: 20px&quot;&gt;本期不做&lt;br&gt;&lt;/span&gt;&lt;/font&gt;" style="text;html=1;strokeColor=none;fillColor=none;align=center;verticalAlign=middle;whiteSpace=wrap;rounded=0;" vertex="1" parent="1">
          <mxGeometry x="980" y="360" width="240" height="70" as="geometry" />
        </mxCell>
        <mxCell id="ovo-RbeHINt_-BDwbEt4-33" value="N" style="edgeStyle=orthogonalEdgeStyle;curved=1;rounded=0;orthogonalLoop=1;jettySize=auto;html=1;" edge="1" parent="1" source="ovo-RbeHINt_-BDwbEt4-28" target="ovo-RbeHINt_-BDwbEt4-32">
          <mxGeometry relative="1" as="geometry" />
        </mxCell>
        <mxCell id="ovo-RbeHINt_-BDwbEt4-37" value="Y" style="edgeStyle=orthogonalEdgeStyle;curved=1;rounded=0;orthogonalLoop=1;jettySize=auto;html=1;" edge="1" parent="1" source="ovo-RbeHINt_-BDwbEt4-28" target="ovo-RbeHINt_-BDwbEt4-36">
          <mxGeometry relative="1" as="geometry" />
        </mxCell>
        <mxCell id="ovo-RbeHINt_-BDwbEt4-28" value="&lt;span style=&quot;font-size: 20px&quot;&gt;已登录？&lt;/span&gt;" style="rhombus;whiteSpace=wrap;html=1;rounded=1;shadow=1;fontFamily=Comic Sans MS;strokeColor=#36393d;strokeWidth=2;fillColor=#ffcc99;glass=0;" vertex="1" parent="1">
          <mxGeometry x="460" y="470" width="220" height="80" as="geometry" />
        </mxCell>
        <mxCell id="ovo-RbeHINt_-BDwbEt4-35" value="" style="edgeStyle=orthogonalEdgeStyle;curved=1;rounded=0;orthogonalLoop=1;jettySize=auto;html=1;" edge="1" parent="1" source="ovo-RbeHINt_-BDwbEt4-32" target="ovo-RbeHINt_-BDwbEt4-34">
          <mxGeometry relative="1" as="geometry" />
        </mxCell>
        <mxCell id="ovo-RbeHINt_-BDwbEt4-32" value="&lt;span style=&quot;font-size: 20px&quot;&gt;展示默认页面2&lt;/span&gt;" style="whiteSpace=wrap;html=1;rounded=1;shadow=1;fontFamily=Comic Sans MS;strokeColor=#36393d;strokeWidth=2;fillColor=#ffcc99;glass=0;" vertex="1" parent="1">
          <mxGeometry x="220" y="480" width="150" height="60" as="geometry" />
        </mxCell>
        <mxCell id="ovo-RbeHINt_-BDwbEt4-45" value="" style="edgeStyle=orthogonalEdgeStyle;curved=1;rounded=0;orthogonalLoop=1;jettySize=auto;html=1;" edge="1" parent="1" source="ovo-RbeHINt_-BDwbEt4-34" target="ovo-RbeHINt_-BDwbEt4-44">
          <mxGeometry relative="1" as="geometry" />
        </mxCell>
        <mxCell id="ovo-RbeHINt_-BDwbEt4-34" value="&lt;span style=&quot;font-size: 20px&quot;&gt;提示用户登录&lt;/span&gt;" style="whiteSpace=wrap;html=1;rounded=1;shadow=1;fontFamily=Comic Sans MS;strokeColor=#36393d;strokeWidth=2;fillColor=#ffcc99;glass=0;" vertex="1" parent="1">
          <mxGeometry x="220" y="620" width="150" height="60" as="geometry" />
        </mxCell>
        <mxCell id="ovo-RbeHINt_-BDwbEt4-39" value="" style="edgeStyle=orthogonalEdgeStyle;curved=1;rounded=0;orthogonalLoop=1;jettySize=auto;html=1;" edge="1" parent="1" source="ovo-RbeHINt_-BDwbEt4-36" target="ovo-RbeHINt_-BDwbEt4-38">
          <mxGeometry relative="1" as="geometry" />
        </mxCell>
        <mxCell id="ovo-RbeHINt_-BDwbEt4-36" value="&lt;span style=&quot;font-size: 20px&quot;&gt;展示用户活动页面3&lt;/span&gt;" style="whiteSpace=wrap;html=1;rounded=1;shadow=1;fontFamily=Comic Sans MS;strokeColor=#36393d;strokeWidth=2;fillColor=#ffcc99;glass=0;" vertex="1" parent="1">
          <mxGeometry x="490" y="760" width="160" height="60" as="geometry" />
        </mxCell>
        <mxCell id="ovo-RbeHINt_-BDwbEt4-41" value="" style="edgeStyle=orthogonalEdgeStyle;curved=1;rounded=0;orthogonalLoop=1;jettySize=auto;html=1;" edge="1" parent="1" source="ovo-RbeHINt_-BDwbEt4-38" target="ovo-RbeHINt_-BDwbEt4-40">
          <mxGeometry relative="1" as="geometry" />
        </mxCell>
        <mxCell id="ovo-RbeHINt_-BDwbEt4-38" value="&lt;span style=&quot;font-size: 20px&quot;&gt;搜索后台&lt;/span&gt;" style="whiteSpace=wrap;html=1;rounded=1;shadow=1;fontFamily=Comic Sans MS;strokeColor=#36393d;strokeWidth=2;fillColor=#ffff88;glass=0;" vertex="1" parent="1">
          <mxGeometry x="490" y="1040" width="160" height="60" as="geometry" />
        </mxCell>
        <mxCell id="ovo-RbeHINt_-BDwbEt4-40" value="&lt;span style=&quot;font-size: 20px&quot;&gt;福利中心后台&lt;/span&gt;" style="whiteSpace=wrap;html=1;rounded=1;shadow=1;fontFamily=Comic Sans MS;strokeColor=#36393d;strokeWidth=2;fillColor=#cce5ff;glass=0;" vertex="1" parent="1">
          <mxGeometry x="490" y="1330" width="160" height="60" as="geometry" />
        </mxCell>
        <mxCell id="ovo-RbeHINt_-BDwbEt4-42" value="&lt;font face=&quot;comic sans ms&quot;&gt;&lt;span style=&quot;font-size: 20px&quot;&gt;拉取任务数据&lt;br&gt;&lt;/span&gt;&lt;/font&gt;" style="text;html=1;strokeColor=none;fillColor=none;align=center;verticalAlign=middle;whiteSpace=wrap;rounded=0;" vertex="1" parent="1">
          <mxGeometry x="532" y="1260" width="240" height="70" as="geometry" />
        </mxCell>
        <mxCell id="ovo-RbeHINt_-BDwbEt4-43" value="&lt;font face=&quot;comic sans ms&quot;&gt;&lt;span style=&quot;font-size: 20px&quot;&gt;拉取任务数据&lt;br&gt;&lt;/span&gt;&lt;/font&gt;" style="text;html=1;strokeColor=none;fillColor=none;align=center;verticalAlign=middle;whiteSpace=wrap;rounded=0;" vertex="1" parent="1">
          <mxGeometry x="520" y="980" width="240" height="70" as="geometry" />
        </mxCell>
        <mxCell id="ovo-RbeHINt_-BDwbEt4-46" style="edgeStyle=orthogonalEdgeStyle;curved=1;rounded=0;orthogonalLoop=1;jettySize=auto;html=1;exitX=1;exitY=0.5;exitDx=0;exitDy=0;entryX=0;entryY=0.5;entryDx=0;entryDy=0;" edge="1" parent="1" source="ovo-RbeHINt_-BDwbEt4-44" target="ovo-RbeHINt_-BDwbEt4-36">
          <mxGeometry relative="1" as="geometry" />
        </mxCell>
        <mxCell id="ovo-RbeHINt_-BDwbEt4-47" value="Y" style="edgeLabel;html=1;align=center;verticalAlign=middle;resizable=0;points=[];" vertex="1" connectable="0" parent="ovo-RbeHINt_-BDwbEt4-46">
          <mxGeometry x="-0.1462" y="1" relative="1" as="geometry">
            <mxPoint as="offset" />
          </mxGeometry>
        </mxCell>
        <mxCell id="ovo-RbeHINt_-BDwbEt4-49" value="N" style="edgeStyle=orthogonalEdgeStyle;curved=1;rounded=0;orthogonalLoop=1;jettySize=auto;html=1;" edge="1" parent="1" source="ovo-RbeHINt_-BDwbEt4-44" target="ovo-RbeHINt_-BDwbEt4-48">
          <mxGeometry relative="1" as="geometry" />
        </mxCell>
        <mxCell id="ovo-RbeHINt_-BDwbEt4-44" value="&lt;span style=&quot;font-size: 20px&quot;&gt;登录成功？&lt;/span&gt;" style="rhombus;whiteSpace=wrap;html=1;rounded=1;shadow=1;fontFamily=Comic Sans MS;strokeColor=#36393d;strokeWidth=2;fillColor=#ffcc99;glass=0;" vertex="1" parent="1">
          <mxGeometry x="220" y="750" width="150" height="80" as="geometry" />
        </mxCell>
        <mxCell id="ovo-RbeHINt_-BDwbEt4-48" value="&lt;span style=&quot;font-size: 20px&quot;&gt;？？？&lt;/span&gt;" style="whiteSpace=wrap;html=1;rounded=1;shadow=1;fontFamily=Comic Sans MS;strokeColor=#36393d;strokeWidth=2;fillColor=#ffcc99;glass=0;" vertex="1" parent="1">
          <mxGeometry x="235" y="920" width="120" height="60" as="geometry" />
        </mxCell>
        <mxCell id="ovo-RbeHINt_-BDwbEt4-52" value="&lt;font face=&quot;comic sans ms&quot;&gt;&lt;span style=&quot;font-size: 20px&quot;&gt;QB福利中心签到活动 拉取活动数据示意图&lt;br&gt;&lt;/span&gt;&lt;/font&gt;" style="text;html=1;strokeColor=none;fillColor=none;align=center;verticalAlign=middle;whiteSpace=wrap;rounded=0;" vertex="1" parent="1">
          <mxGeometry x="1450" y="130" width="410" height="70" as="geometry" />
        </mxCell>
      </root>
    </mxGraphModel>
  </diagram>
</mxfile>
